<?xml version="1.0" encoding="utf-8"?>
<!-- Generator: Adobe Illustrator 24.1.2, SVG Export Plug-In . SVG Version: 6.00 Build 0)  -->
<svg version="1.1" id="Layer_1" xmlns="http://www.w3.org/2000/svg" xmlns:xlink="http://www.w3.org/1999/xlink" x="0px" y="0px"
	 viewBox="0 0 1400 1400" style="enable-background:new 0 0 1400 1400;" xml:space="preserve">
<style type="text/css">
	.st0{fill:#FFFFFF;}
	.st1{opacity:0.2;}
	.st2{fill:none;stroke:#221F1F;stroke-width:3;stroke-linecap:round;stroke-linejoin:round;stroke-miterlimit:10;}
	.st3{fill:#221F1F;stroke:#221F1F;stroke-width:3;stroke-miterlimit:10;}
	.st4{fill:#221F1F;stroke:#221F1F;stroke-width:3;stroke-linecap:round;stroke-linejoin:round;stroke-miterlimit:10;}
	.st5{fill:none;stroke:#FFFFFF;stroke-width:3;stroke-miterlimit:10;}
	.st6{fill:#FFFFFF;stroke:#221F1F;stroke-width:3;stroke-miterlimit:10;}
	.st7{fill:none;stroke:#221F1F;stroke-width:3;stroke-miterlimit:10;}
	.st8{fill:none;stroke:#221F1F;stroke-width:3;stroke-linejoin:round;stroke-miterlimit:10;}
	.st9{fill:#FFFFFF;stroke:#FFFFFF;stroke-width:3;stroke-miterlimit:10;}
	.st10{fill:none;stroke:#231F20;stroke-width:2;stroke-linecap:round;stroke-linejoin:round;stroke-miterlimit:10;}
	.st11{fill:#231F20;stroke:#231F20;stroke-width:2;stroke-miterlimit:10;}
	.st12{fill:#231F20;stroke:#231F20;stroke-width:2;stroke-linecap:round;stroke-linejoin:round;stroke-miterlimit:10;}
	.st13{fill:url(#SVGID_1_);}
	.st14{fill:url(#SVGID_2_);}
	.st15{fill:url(#SVGID_3_);}
	.st16{fill:url(#SVGID_4_);}
	.st17{fill:none;}
	.st18{font-family:'Georgia-Bold';}
	.st19{font-size:271.9008px;}
	.st20{letter-spacing:21.4;}
	.st21{font-family:'Georgia';}
	.st22{font-size:119.6364px;}
	.st23{fill:url(#SVGID_5_);}
	.st24{fill:url(#SVGID_6_);}
	.st25{fill:url(#SVGID_7_);}
	.st26{fill:url(#SVGID_8_);}
	.st27{fill:url(#SVGID_9_);}
	.st28{fill:url(#SVGID_10_);}
	.st29{fill:url(#SVGID_11_);}
	.st30{fill:url(#SVGID_12_);}
	.st31{fill:url(#SVGID_13_);}
	.st32{fill:url(#SVGID_14_);}
	.st33{fill:url(#SVGID_15_);}
	.st34{fill:url(#SVGID_16_);}
	.st35{fill:url(#SVGID_17_);}
	.st36{fill:url(#SVGID_18_);}
	.st37{fill:url(#SVGID_19_);}
	.st38{fill:url(#SVGID_20_);}
	.st39{fill:url(#SVGID_21_);}
	.st40{fill:url(#SVGID_22_);}
	.st41{fill:none;stroke:#FFFFFF;stroke-width:2;stroke-miterlimit:10;}
	.st42{fill:#FFFFFF;stroke:#231F20;stroke-width:2;stroke-miterlimit:10;}
	.st43{fill:none;stroke:#231F20;stroke-width:2;stroke-miterlimit:10;}
	.st44{fill:none;stroke:#231F20;stroke-width:2;stroke-linejoin:round;stroke-miterlimit:10;}
	.st45{fill:#FFFFFF;stroke:#FFFFFF;stroke-width:2;stroke-miterlimit:10;}
	.st46{fill:#29A349;}
	.st47{fill:#6BBD45;}
	.st48{fill:#EF4A24;}
	.st49{fill:#0D86A3;}
	.st50{fill:#29C3EC;}
	.st51{fill:#28A349;}
	.st52{fill:#68BD45;}
	.st53{fill:#EF3D23;}
	.st54{fill:#0293A3;}
	.st55{fill:#4DC6E0;}
	.st56{fill:#A32121;}
	.st57{fill:#F1563D;}
	.st58{fill:#00A357;}
	.st59{fill:#68C181;}
	.st60{fill:#F37321;}
	.st61{fill:#D84927;}
	.st62{fill:#D81F27;}
</style>
<rect class="st0" width="1400" height="1400"/>
<g>
	<g class="st1">
		<g>
			<g>
				<path class="st2" d="M1310.8,559.9c-16.3,13.1-117.2,71.5-119.5,73.3v3.9l-77.8,84l-18.6-19.3l80.6-81h4l5.9-10
					c8.5-15.4,61.8-112.2,71.4-122.1c1.5-1.5,3.2-3,3.2-3c3.1-2.7,9.7-8.2,18.8-9.7c4.5-0.7,7.9-0.2,11,0.3
					c9.4,1.5,16.6,4.9,21.4,7.9c0.3,0.2,0.6,0.4,0.9,0.6c0,0-13.7-1.9-20.4,0.9c-6.3,2.6-13.2,5.2-21.7,14.3s-74.4,97.1-79.6,112.7
					l8.8,9.2c15.1-5.3,99.9-73.6,108.7-82.4c8.8-8.8,11.4-16,13.8-22.5c2.6-6.7,1.1-20,1-20.6c1.5,2.4,3.1,5.3,4.4,8.7
					c3.2,8.5,3.2,15.7,3.1,17.3c-0.3,17.8-11.5,29.7-14.4,32.8C1314.9,556.1,1313.2,557.9,1310.8,559.9z"/>
				<path class="st2" d="M1307.9,539.3c-8.8,8.8-93.6,77.1-108.7,82.4l-8.8-9.2c5.2-15.6,71.1-103.6,79.6-112.7s15.4-11.8,21.7-14.3
					c6.6-2.7,20.4-0.9,20.4-0.9c2.3,1.5,4,3.2,5.3,4.6c0.1,0.1,0.2,0.2,0.4,0.4c1.4,1.6,3.3,3.8,5.1,6.7c0.1,0.6,1.6,13.8-1,20.6
					C1319.3,523.3,1316.8,530.5,1307.9,539.3z"/>
				<path class="st2" d="M1322.8,496.3C1322.8,496.2,1322.8,496.2,1322.8,496.3"/>
				<line class="st2" x1="1203.2" y1="625.8" x2="1199.3" y2="621.7"/>
				<line class="st2" x1="1190.3" y1="612.5" x2="1186.5" y2="608.6"/>
				<path class="st2" d="M1110.4,717.7"/>
				<path class="st2" d="M1097.3,704.2"/>
				<polygon class="st3" points="1175.4,620.6 1179.5,620.6 1191.4,633 1191.3,637 1113.4,721 1094.8,701.7 				"/>
				<path class="st2" d="M1097.5,704.7l-6.4,6.6c-1.2,1.2-2.1,2.7-2.6,4.3c-0.9,2.8-1.5,7,1.6,10.2c2.8,2.9,6.4,2.7,9.1,1.9
					c2-0.6,3.8-1.7,5.2-3.2l6.3-6.5"/>
				<path class="st2" d="M1194.2,616.4c0,0,65.9-89.4,82.1-104c16.1-14.6,33.7-24.8,41.5-22.9"/>
				<path class="st2" d="M1195,617.3c0,0,86.1-68.5,100.2-85.2s24-34.9,22.1-43"/>
				<path class="st2" d="M1343.8,558.6"/>
			</g>
			<path class="st4" d="M1208,697.4"/>
		</g>
		<g>
			<path class="st5" d="M1244.3,641.4"/>
			<g>
				<path class="st3" d="M1297.7,712.4c0.4-2.9,0.6-5.6,0.6-7.9c-1.2-1.4-2.4-2.8-3.6-4.1c-32.8-37.3-46.9-51.6-52.6-56.2
					c-0.1-0.1-1.3-1.1-3-2.4c0,0,0,0-0.1,0c-0.6-0.5-1.2-0.9-1.7-1.4l0,0c-3.8-2.9-12.8-8.6-18.7-4.2c-0.1,0.1-0.3,0.2-0.4,0.4
					c-4.2,4.2,2.5,18,7.9,26.9c0,0,0,0,0,0.1c1.8,2.7,3.7,5.3,5.6,7.8c26.9,35.6,60.7,57,60.7,57
					C1295.4,723,1296.9,717,1297.7,712.4z M1231.8,655c-1.3-1.4-1.3-3.6,0-4.9c1.3-1.4,3.4-1.4,4.8,0c1.3,1.4,1.3,3.6,0,4.9
					C1235.3,656.4,1233,656.4,1231.8,655z M1253.3,677.3c-1.3-1.4-1.3-3.6,0-4.9c1.3-1.4,3.4-1.4,4.8,0c1.3,1.4,1.3,3.6,0,4.9
					C1256.8,678.7,1254.5,678.7,1253.3,677.3z M1276.9,701.8c-1.3-1.4-1.3-3.6,0-4.9c1.3-1.4,3.4-1.4,4.8,0c1.3,1.4,1.3,3.6,0,4.9
					C1280.3,703.2,1278.3,703.2,1276.9,701.8z"/>
				<path class="st6" d="M1218,636.5c0,0-17.2,1.1-24.7,1.1c0,0,0,0-0.1,0h-0.1c-0.5,0-1-0.1-1.5-0.1h-0.6l0,0l0,0l-8.8,0.4
					c1.4,1.9-72.4-75.9-93.9-110.4c0,0-19.2-29.2-25.5-52.1c9.3,5.2,27.9,17.4,50.8,39.1c29.4,27.9,67.4,65.5,95.6,97.4
					c0,0,0.3,0.4,0.8,1.1l0,0C1210.5,614,1218.8,629.8,1218,636.5z"/>
				<path class="st6" d="M1237.2,640.4c-3.8-2.9-12.8-8.6-18.7-4.2c-0.1,0.1-0.3,0.2-0.4,0.4c0.7-6.7-7.6-22.4-8.1-23.4
					c2,2.8,7.3,10.1,10.8,13.8C1223.7,629.8,1228.3,633.4,1237.2,640.4z"/>
				<path class="st6" d="M1225.9,663.4c-2.4-3.6-4.8-7.3-7-11.1c-0.6-1-1.5-2.4-2.7-3.9c0,0-2.3-3-4.5-5.1
					c-2.9-2.8-9.8-5.1-18.5-5.7c7.6,0,24.7-1.1,24.7-1.1C1213.8,640.7,1220.5,654.5,1225.9,663.4z"/>
				<path class="st7" d="M1248.9,650.7"/>
				<path class="st7" d="M1213.7,618"/>
				<path class="st7" d="M1197.2,637"/>
				<path class="st7" d="M1214.2,655.4"/>
				<path class="st7" d="M1219.8,664.1"/>
				<path class="st7" d="M1226,663.4c2.8,4.6,5.3,7.9,5.6,7.8"/>
				<path class="st7" d="M1238.9,641.8c-0.2-0.2-0.8-0.7-1.7-1.4"/>
				<path class="st8" d="M1193.2,637.5c-0.9,0-1.6,0-2.2,0"/>
				<path class="st9" d="M1281.8,701.8c-1.3,1.4-3.5,1.4-4.8,0c-1.3-1.4-1.3-3.6,0-4.9c1.3-1.4,3.4-1.4,4.8,0
					C1283,698.2,1283,700.4,1281.8,701.8z"/>
				<path class="st9" d="M1236.5,655c-1.3,1.4-3.5,1.4-4.8,0c-1.3-1.4-1.3-3.6,0-4.9c1.3-1.4,3.4-1.4,4.8,0
					C1237.8,651.4,1237.8,653.6,1236.5,655z"/>
				<path class="st9" d="M1258,677.3c-1.3,1.4-3.4,1.4-4.8,0c-1.3-1.4-1.3-3.6,0-4.9c1.3-1.4,3.4-1.4,4.8,0
					C1259.3,673.7,1259.3,675.9,1258,677.3z"/>
			</g>
		</g>
	</g>
	<g>
		<g>
			<path class="st10" d="M333.9,731.5c-16.1,13-115.9,70.8-118.3,72.5v3.8l-77,83.2l-18.3-19.2l79.8-80.2h4l5.8-9.9
				c8.4-15.2,61.2-111.1,70.6-120.9c1.5-1.5,3.1-3,3.1-3c3.1-2.6,9.6-8.1,18.6-9.6c4.4-0.7,7.8-0.2,10.9,0.3
				c9.3,1.4,16.4,4.8,21.2,7.8c0.3,0.2,0.6,0.4,0.9,0.6c0,0-13.6-1.8-20.2,0.9c-6.2,2.6-13.1,5.2-21.4,14.2
				c-8.4,9-73.6,96.1-78.7,111.5l8.8,9.1c14.9-5.3,98.9-72.9,107.6-81.5c8.7-8.7,11.2-15.8,13.7-22.2c2.6-6.7,1.1-19.8,1-20.4
				c1.5,2.4,3,5.3,4.3,8.7c3.2,8.5,3.1,15.6,3.1,17.1c-0.3,17.7-11.4,29.4-14.2,32.5C338.1,727.8,336.3,729.6,333.9,731.5z"/>
			<path class="st10" d="M331.1,711.1c-8.7,8.7-92.7,76.2-107.6,81.5l-8.8-9.1C219.8,768,285,681,293.4,672s15.2-11.6,21.4-14.2
				c6.6-2.7,20.2-0.9,20.2-0.9c2.2,1.5,4,3.2,5.3,4.6c0.1,0.1,0.2,0.2,0.4,0.3c1.4,1.6,3.3,3.8,5.1,6.6c0.1,0.6,1.6,13.7-1,20.4
				C342.4,695.3,339.8,702.4,331.1,711.1z"/>
			<path class="st10" d="M345.8,668.5L345.8,668.5"/>
			<line class="st10" x1="227.5" y1="796.7" x2="223.5" y2="792.7"/>
			<line class="st10" x1="214.8" y1="783.6" x2="211" y2="779.7"/>
			<path class="st10" d="M135.7,887.6"/>
			<path class="st10" d="M122.7,874.3"/>
			<polygon class="st11" points="200,791.6 204,791.6 215.8,803.8 215.6,807.8 138.7,890.9 120.3,871.8 			"/>
			<path class="st10" d="M122.9,874.8l-6.3,6.5c-1.2,1.2-2.1,2.7-2.6,4.3c-0.9,2.7-1.5,6.9,1.6,10.1c2.8,2.9,6.4,2.7,9,1.9
				c2-0.5,3.7-1.7,5.2-3.2l6.2-6.4"/>
			<path class="st10" d="M218.5,787.5c0,0,65.3-88.5,81.2-102.9c15.9-14.4,33.3-24.6,41-22.6"/>
			<path class="st10" d="M219.4,788.3c0,0,85.2-67.7,99.1-84.3c13.9-16.5,23.7-34.5,21.9-42.6"/>
			<path class="st10" d="M366.6,730.3"/>
		</g>
		<path class="st12" d="M232.3,867.5"/>
	</g>
	<g>
		<g>
			<g>
				
					<linearGradient id="SVGID_1_" gradientUnits="userSpaceOnUse" x1="58.1896" y1="1087.1158" x2="1164.2847" y2="939.1886" gradientTransform="matrix(1 0 0 1 0 -486.1277)">
					<stop  offset="0" style="stop-color:#F27321"/>
					<stop  offset="0.3107" style="stop-color:#D74926"/>
					<stop  offset="0.6884" style="stop-color:#EE3D23"/>
					<stop  offset="1" style="stop-color:#D81F27"/>
				</linearGradient>
				<path class="st13" d="M243.2,598.7c5.8,3.9,10.4,8.8,14.1,14.7c3.6,5.9,5.4,12.8,5.4,20.8c0,9.6-2.1,17.6-6.1,24.2
					c-4.1,6.6-10,11.8-17.6,15.6c-8.1,4.1-17.5,6.9-28,8.6c-10.6,1.7-23.1,2.5-37.4,2.5H73.8v-10.4c2.8-0.3,6.3-0.7,10.5-1.2
					s7.2-1.1,8.9-1.9c3.3-1.3,5.6-3.1,6.8-5.2c1.2-2.2,1.8-5,1.8-8.4V525.3c0-3.2-0.5-5.8-1.5-8c-1-2.1-3.4-4-7.2-5.6
					c-2.8-1.1-6-2.1-9.7-2.9c-3.7-0.8-6.9-1.4-9.7-1.8v-10.2h104.2c26.2,0,45.1,3.5,56.8,10.6c11.6,7.1,17.4,17.5,17.4,31.3
					c0,6.4-1.3,12-3.9,16.8c-2.6,4.8-6.4,9-11.2,12.5c-4.4,3.3-9.7,6.1-15.8,8.5c-6.1,2.4-12.7,4.4-19.7,6v2.5
					c7,0.7,14.3,2.2,21.9,4.6C231,592,237.6,595,243.2,598.7z M199.7,542c0-10.4-3-18.6-9-24.4c-6-5.8-15-8.8-27-8.8
					c-1.7,0-3.9,0.1-6.7,0.2c-2.7,0.1-5.1,0.2-7.1,0.3v69.9h7c14.6,0,25.4-3.3,32.3-10C196.2,562.5,199.7,553.5,199.7,542z
					 M209.1,632.5c0-13.1-4-23.2-11.9-30.2s-19.3-10.5-34.2-10.5c-1.7,0-4,0.1-6.8,0.2c-2.8,0.1-4.9,0.2-6.3,0.3v69
					c0.8,3.3,3.3,6,7.6,8.3c4.2,2.3,9.4,3.4,15.4,3.4c10.7,0,19.4-3.5,26.2-10.6C205.8,655.3,209.1,645.4,209.1,632.5z"/>
				
					<linearGradient id="SVGID_2_" gradientUnits="userSpaceOnUse" x1="62.9984" y1="1123.8236" x2="1170.7266" y2="975.6779" gradientTransform="matrix(1 0 0 1 0 -486.1277)">
					<stop  offset="0" style="stop-color:#F27321"/>
					<stop  offset="0.3107" style="stop-color:#D74926"/>
					<stop  offset="0.6884" style="stop-color:#EE3D23"/>
					<stop  offset="1" style="stop-color:#D81F27"/>
				</linearGradient>
				<path class="st14" d="M484.2,517.7c9.5,8.5,17,18.8,22.5,30.8c5.5,12,8.3,25.8,8.3,41.2c0,13.7-2.3,26.8-7,39.2
					c-4.7,12.4-11.4,23.1-20.3,32c-9.3,9.3-20.2,16.5-32.7,21.7c-12.5,5.2-27.4,7.8-44.7,7.8c-14,0-27.2-2.3-39.6-6.8
					s-23.4-11.1-32.8-19.6c-9.4-8.4-16.8-18.6-22.3-30.7c-5.5-12-8.2-25.4-8.2-40.2c0-15.4,2.7-29.4,8-41.9
					c5.3-12.5,12.7-23.3,22.1-32.2c9.3-8.8,20.3-15.5,33-20.2s26.3-7.1,40.8-7.1c14.3,0,27.8,2.3,40.3,6.9
					C464.1,503.1,475,509.5,484.2,517.7z M449.5,652.6c4.1-8.1,7-17.2,8.8-27.4s2.7-21.7,2.7-34.6c0-10.9-0.8-21.5-2.4-31.8
					s-4.3-19.5-8-27.6c-3.9-8.1-9-14.5-15.4-19.4c-6.4-4.9-14.4-7.3-23.9-7.3c-16.3,0-28.7,7.6-37.2,22.8s-12.7,36.7-12.7,64.4
					c0,11.8,0.9,22.9,2.8,33.4c1.8,10.5,4.8,19.6,8.7,27.4c4.1,7.9,9.2,14,15.4,18.4c6.2,4.4,13.9,6.6,23,6.6c8.9,0,16.6-2.2,23-6.6
					C440.6,666.4,445.7,660.3,449.5,652.6z"/>
				
					<linearGradient id="SVGID_3_" gradientUnits="userSpaceOnUse" x1="67.5608" y1="1154.4171" x2="1174.8547" y2="1006.3295" gradientTransform="matrix(1 0 0 1 0 -486.1277)">
					<stop  offset="0" style="stop-color:#F27321"/>
					<stop  offset="0.3107" style="stop-color:#D74926"/>
					<stop  offset="0.6884" style="stop-color:#EE3D23"/>
					<stop  offset="1" style="stop-color:#D81F27"/>
				</linearGradient>
				<path class="st15" d="M737.9,624.7l-3.8,60.4H557.5v-10.4c3.2-0.3,6.8-0.7,11.1-1.3c4.2-0.6,7-1.1,8.4-1.7
					c3.2-1.2,5.5-3,6.8-5.2c1.3-2.2,1.9-5,1.9-8.5V525.3c0-3.2-0.5-5.8-1.5-7.9c-1-2.1-3.4-4-7.2-5.6c-2.8-1.2-6.1-2.2-10.1-3
					c-3.9-0.8-7.1-1.3-9.4-1.7v-10.3h105.3v10.4c-2.9,0.3-6.3,0.6-10.2,1.1s-7.3,1.2-10.2,2.1c-3.5,1.1-5.9,2.9-7,5.4
					c-1.2,2.4-1.8,5.2-1.8,8.3V648c0,5.8,0.4,10.4,1.2,13.8c0.8,3.4,2.4,5.8,4.7,7.4c2.3,1.7,5.6,2.8,9.8,3.3s10,0.7,17.4,0.7
					c7.2,0,14.2-0.4,21-1.3c6.8-0.8,11.7-2.7,14.7-5.5c4.6-4.5,9.3-10.9,14.1-19.1s8.7-15.7,11.6-22.5L737.9,624.7L737.9,624.7z"/>
				
					<linearGradient id="SVGID_4_" gradientUnits="userSpaceOnUse" x1="71.1492" y1="1177.9509" x2="1178.0077" y2="1029.9215" gradientTransform="matrix(1 0 0 1 0 -486.1277)">
					<stop  offset="0" style="stop-color:#F27321"/>
					<stop  offset="0.3107" style="stop-color:#D74926"/>
					<stop  offset="0.6884" style="stop-color:#EE3D23"/>
					<stop  offset="1" style="stop-color:#D81F27"/>
				</linearGradient>
				<path class="st16" d="M943.5,516.2c11.7,7.5,21.2,17.5,28.4,30.1c7.2,12.6,10.8,27.9,10.8,46c0,15.9-3.2,29.8-9.7,41.6
					c-6.4,11.8-15,21.5-25.6,29c-10.8,7.5-23.1,13.1-36.8,16.8s-28.1,5.5-43.2,5.5h-96.6v-10.4c2.9-0.1,6.5-0.4,10.8-0.8
					s7.2-1,8.7-1.6c3.2-1.3,5.5-3.1,6.8-5.4s1.9-5,1.9-8.2V525.3c0-3-0.6-5.7-1.8-8.2s-3.5-4.4-6.9-5.9s-7.1-2.5-10.9-3.1
					c-3.8-0.5-6.8-0.9-8.8-1.1v-10.2h102c10.9,0,22.6,1.4,35,4.1C920,503.6,932,508.7,943.5,516.2z M916,651.2
					c4.4-7.1,7.6-15.5,9.7-25.3c2-9.8,3-21,3-33.8c0-12.5-1.4-23.9-4.1-34.1s-6.7-19-11.9-26.3s-11.7-12.9-19.5-16.9s-16.6-6-26.6-6
					c-3.2,0-6.7,0.1-10.7,0.2c-4,0.1-7,0.2-9,0.3v143c0,3.2,0.4,6,1.3,8.4c0.9,2.4,2.3,4.6,4.4,6.4c2.1,1.9,4.6,3.3,7.6,4.3
					s7,1.5,11.8,1.5c10.2,0,18.9-1.9,26.2-5.6C905.5,663.8,911.5,658.3,916,651.2z"/>
			</g>
			<rect x="64.5" y="479.6" class="st17" width="943.9" height="215.7"/>
			<text transform="matrix(1.03 0 0 1 64.5399 685.1585)" class="st18 st19 st20">bold</text>
		</g>
		<rect x="470.7" y="656" class="st17" width="99.9" height="107.2"/>
		<text transform="matrix(1.03 0 0 1 470.7938 746.4598)" class="st21 st22">&amp;</text>
		<rect x="279.1" y="695.3" class="st17" width="1071.5" height="219.9"/>
		<text transform="matrix(1.03 0 0 1 279.163 900.8406)" class="st18 st19 st20">tasty</text>
	</g>
	<g>
		<g>
			<g>
				
					<linearGradient id="SVGID_5_" gradientUnits="userSpaceOnUse" x1="1187.5995" y1="1617.7557" x2="-162.8471" y2="917.984" gradientTransform="matrix(1 0 0 1 0 -486.1277)">
					<stop  offset="3.070000e-02" style="stop-color:#F27321"/>
					<stop  offset="0.3056" style="stop-color:#D74926"/>
					<stop  offset="0.8046" style="stop-color:#EE3D23"/>
					<stop  offset="1" style="stop-color:#D81F27"/>
				</linearGradient>
				<path class="st23" d="M243.2,598.7c5.8,3.9,10.4,8.8,14.1,14.7c3.6,5.9,5.4,12.8,5.4,20.8c0,9.6-2.1,17.6-6.1,24.2
					c-4.1,6.6-10,11.8-17.6,15.6c-8.1,4.1-17.5,6.9-28,8.6c-10.6,1.7-23.1,2.5-37.4,2.5H73.8v-10.4c2.8-0.3,6.3-0.7,10.5-1.2
					s7.2-1.1,8.9-1.9c3.3-1.3,5.6-3.1,6.8-5.2c1.2-2.2,1.8-5,1.8-8.4V525.3c0-3.2-0.5-5.8-1.5-8c-1-2.1-3.4-4-7.2-5.6
					c-2.8-1.1-6-2.1-9.7-2.9c-3.7-0.8-6.9-1.4-9.7-1.8v-10.2h104.2c26.2,0,45.1,3.5,56.8,10.6c11.6,7.1,17.4,17.5,17.4,31.3
					c0,6.4-1.3,12-3.9,16.8c-2.6,4.8-6.4,9-11.2,12.5c-4.4,3.3-9.7,6.1-15.8,8.5c-6.1,2.4-12.7,4.4-19.7,6v2.5
					c7,0.7,14.3,2.2,21.9,4.6C231,592,237.6,595,243.2,598.7z M199.7,542c0-10.4-3-18.6-9-24.4c-6-5.8-15-8.8-27-8.8
					c-1.7,0-3.9,0.1-6.7,0.2c-2.7,0.1-5.1,0.2-7.1,0.3v69.9h7c14.6,0,25.4-3.3,32.3-10C196.2,562.5,199.7,553.5,199.7,542z
					 M209.1,632.5c0-13.1-4-23.2-11.9-30.2s-19.3-10.5-34.2-10.5c-1.7,0-4,0.1-6.8,0.2c-2.8,0.1-4.9,0.2-6.3,0.3v69
					c0.8,3.3,3.3,6,7.6,8.3c4.2,2.3,9.4,3.4,15.4,3.4c10.7,0,19.4-3.5,26.2-10.6C205.8,655.3,209.1,645.4,209.1,632.5z"/>
				
					<linearGradient id="SVGID_6_" gradientUnits="userSpaceOnUse" x1="1246.547" y1="1510.0417" x2="-106.2782" y2="809.0375" gradientTransform="matrix(1 0 0 1 0 -486.1277)">
					<stop  offset="3.070000e-02" style="stop-color:#F27321"/>
					<stop  offset="0.3056" style="stop-color:#D74926"/>
					<stop  offset="0.8046" style="stop-color:#EE3D23"/>
					<stop  offset="1" style="stop-color:#D81F27"/>
				</linearGradient>
				<path class="st24" d="M484.2,517.7c9.5,8.5,17,18.8,22.5,30.8c5.5,12,8.3,25.8,8.3,41.2c0,13.7-2.3,26.8-7,39.2
					c-4.7,12.4-11.4,23.1-20.3,32c-9.3,9.3-20.2,16.5-32.7,21.7c-12.5,5.2-27.4,7.8-44.7,7.8c-14,0-27.2-2.3-39.6-6.8
					s-23.4-11.1-32.8-19.6c-9.4-8.4-16.8-18.6-22.3-30.7c-5.5-12-8.2-25.4-8.2-40.2c0-15.4,2.7-29.4,8-41.9
					c5.3-12.5,12.7-23.3,22.1-32.2c9.3-8.8,20.3-15.5,33-20.2s26.3-7.1,40.8-7.1c14.3,0,27.8,2.3,40.3,6.9
					C464.1,503.1,475,509.5,484.2,517.7z M449.5,652.6c4.1-8.1,7-17.2,8.8-27.4s2.7-21.7,2.7-34.6c0-10.9-0.8-21.5-2.4-31.8
					s-4.3-19.5-8-27.6c-3.9-8.1-9-14.5-15.4-19.4c-6.4-4.9-14.4-7.3-23.9-7.3c-16.3,0-28.7,7.6-37.2,22.8s-12.7,36.7-12.7,64.4
					c0,11.8,0.9,22.9,2.8,33.4c1.8,10.5,4.8,19.6,8.7,27.4c4.1,7.9,9.2,14,15.4,18.4c6.2,4.4,13.9,6.6,23,6.6c8.9,0,16.6-2.2,23-6.6
					C440.6,666.4,445.7,660.3,449.5,652.6z"/>
				
					<linearGradient id="SVGID_7_" gradientUnits="userSpaceOnUse" x1="1287.7407" y1="1428.1644" x2="-61.5828" y2="728.9747" gradientTransform="matrix(1 0 0 1 0 -486.1277)">
					<stop  offset="3.070000e-02" style="stop-color:#F27321"/>
					<stop  offset="0.3056" style="stop-color:#D74926"/>
					<stop  offset="0.8046" style="stop-color:#EE3D23"/>
					<stop  offset="1" style="stop-color:#D81F27"/>
				</linearGradient>
				<path class="st25" d="M737.9,624.7l-3.8,60.4H557.5v-10.4c3.2-0.3,6.8-0.7,11.1-1.3c4.2-0.6,7-1.1,8.4-1.7
					c3.2-1.2,5.5-3,6.8-5.2c1.3-2.2,1.9-5,1.9-8.5V525.3c0-3.2-0.5-5.8-1.5-7.9c-1-2.1-3.4-4-7.2-5.6c-2.8-1.2-6.1-2.2-10.1-3
					c-3.9-0.8-7.1-1.3-9.4-1.7v-10.3h105.3v10.4c-2.9,0.3-6.3,0.6-10.2,1.1s-7.3,1.2-10.2,2.1c-3.5,1.1-5.9,2.9-7,5.4
					c-1.2,2.4-1.8,5.2-1.8,8.3V648c0,5.8,0.4,10.4,1.2,13.8c0.8,3.4,2.4,5.8,4.7,7.4c2.3,1.7,5.6,2.8,9.8,3.3s10,0.7,17.4,0.7
					c7.2,0,14.2-0.4,21-1.3c6.8-0.8,11.7-2.7,14.7-5.5c4.6-4.5,9.3-10.9,14.1-19.1s8.7-15.7,11.6-22.5L737.9,624.7L737.9,624.7z"/>
				
					<linearGradient id="SVGID_8_" gradientUnits="userSpaceOnUse" x1="1338.302" y1="1335.7886" x2="-13.4151" y2="635.3586" gradientTransform="matrix(1 0 0 1 0 -486.1277)">
					<stop  offset="3.070000e-02" style="stop-color:#F27321"/>
					<stop  offset="0.3056" style="stop-color:#D74926"/>
					<stop  offset="0.8046" style="stop-color:#EE3D23"/>
					<stop  offset="1" style="stop-color:#D81F27"/>
				</linearGradient>
				<path class="st26" d="M943.5,516.2c11.7,7.5,21.2,17.5,28.4,30.1c7.2,12.6,10.8,27.9,10.8,46c0,15.9-3.2,29.8-9.7,41.6
					c-6.4,11.8-15,21.5-25.6,29c-10.8,7.5-23.1,13.1-36.8,16.8s-28.1,5.5-43.2,5.5h-96.6v-10.4c2.9-0.1,6.5-0.4,10.8-0.8
					s7.2-1,8.7-1.6c3.2-1.3,5.5-3.1,6.8-5.4s1.9-5,1.9-8.2V525.3c0-3-0.6-5.7-1.8-8.2s-3.5-4.4-6.9-5.9s-7.1-2.5-10.9-3.1
					c-3.8-0.5-6.8-0.9-8.8-1.1v-10.2h102c10.9,0,22.6,1.4,35,4.1C920,503.6,932,508.7,943.5,516.2z M916,651.2
					c4.4-7.1,7.6-15.5,9.7-25.3c2-9.8,3-21,3-33.8c0-12.5-1.4-23.9-4.1-34.1s-6.7-19-11.9-26.3s-11.7-12.9-19.5-16.9s-16.6-6-26.6-6
					c-3.2,0-6.7,0.1-10.7,0.2c-4,0.1-7,0.2-9,0.3v143c0,3.2,0.4,6,1.3,8.4c0.9,2.4,2.3,4.6,4.4,6.4c2.1,1.9,4.6,3.3,7.6,4.3
					s7,1.5,11.8,1.5c10.2,0,18.9-1.9,26.2-5.6C905.5,663.8,911.5,658.3,916,651.2z"/>
			</g>
			<g>
				
					<linearGradient id="SVGID_9_" gradientUnits="userSpaceOnUse" x1="1187.5995" y1="1617.7557" x2="-162.8471" y2="917.984" gradientTransform="matrix(1 0 0 1 0 -486.1277)">
					<stop  offset="3.070000e-02" style="stop-color:#F27321"/>
					<stop  offset="0.3056" style="stop-color:#D74926"/>
					<stop  offset="0.8046" style="stop-color:#EE3D23"/>
					<stop  offset="1" style="stop-color:#D81F27"/>
				</linearGradient>
				<path class="st27" d="M243.2,598.7c5.8,3.9,10.4,8.8,14.1,14.7c3.6,5.9,5.4,12.8,5.4,20.8c0,9.6-2.1,17.6-6.1,24.2
					c-4.1,6.6-10,11.8-17.6,15.6c-8.1,4.1-17.5,6.9-28,8.6c-10.6,1.7-23.1,2.5-37.4,2.5H73.8v-10.4c2.8-0.3,6.3-0.7,10.5-1.2
					s7.2-1.1,8.9-1.9c3.3-1.3,5.6-3.1,6.8-5.2c1.2-2.2,1.8-5,1.8-8.4V525.3c0-3.2-0.5-5.8-1.5-8c-1-2.1-3.4-4-7.2-5.6
					c-2.8-1.1-6-2.1-9.7-2.9c-3.7-0.8-6.9-1.4-9.7-1.8v-10.2h104.2c26.2,0,45.1,3.5,56.8,10.6c11.6,7.1,17.4,17.5,17.4,31.3
					c0,6.4-1.3,12-3.9,16.8c-2.6,4.8-6.4,9-11.2,12.5c-4.4,3.3-9.7,6.1-15.8,8.5c-6.1,2.4-12.7,4.4-19.7,6v2.5
					c7,0.7,14.3,2.2,21.9,4.6C231,592,237.6,595,243.2,598.7z M199.7,542c0-10.4-3-18.6-9-24.4c-6-5.8-15-8.8-27-8.8
					c-1.7,0-3.9,0.1-6.7,0.2c-2.7,0.1-5.1,0.2-7.1,0.3v69.9h7c14.6,0,25.4-3.3,32.3-10C196.2,562.5,199.7,553.5,199.7,542z
					 M209.1,632.5c0-13.1-4-23.2-11.9-30.2s-19.3-10.5-34.2-10.5c-1.7,0-4,0.1-6.8,0.2c-2.8,0.1-4.9,0.2-6.3,0.3v69
					c0.8,3.3,3.3,6,7.6,8.3c4.2,2.3,9.4,3.4,15.4,3.4c10.7,0,19.4-3.5,26.2-10.6C205.8,655.3,209.1,645.4,209.1,632.5z"/>
				
					<linearGradient id="SVGID_10_" gradientUnits="userSpaceOnUse" x1="1246.547" y1="1510.0417" x2="-106.2782" y2="809.0375" gradientTransform="matrix(1 0 0 1 0 -486.1277)">
					<stop  offset="3.070000e-02" style="stop-color:#F27321"/>
					<stop  offset="0.3056" style="stop-color:#D74926"/>
					<stop  offset="0.8046" style="stop-color:#EE3D23"/>
					<stop  offset="1" style="stop-color:#D81F27"/>
				</linearGradient>
				<path class="st28" d="M484.2,517.7c9.5,8.5,17,18.8,22.5,30.8c5.5,12,8.3,25.8,8.3,41.2c0,13.7-2.3,26.8-7,39.2
					c-4.7,12.4-11.4,23.1-20.3,32c-9.3,9.3-20.2,16.5-32.7,21.7c-12.5,5.2-27.4,7.8-44.7,7.8c-14,0-27.2-2.3-39.6-6.8
					s-23.4-11.1-32.8-19.6c-9.4-8.4-16.8-18.6-22.3-30.7c-5.5-12-8.2-25.4-8.2-40.2c0-15.4,2.7-29.4,8-41.9
					c5.3-12.5,12.7-23.3,22.1-32.2c9.3-8.8,20.3-15.5,33-20.2s26.3-7.1,40.8-7.1c14.3,0,27.8,2.3,40.3,6.9
					C464.1,503.1,475,509.5,484.2,517.7z M449.5,652.6c4.1-8.1,7-17.2,8.8-27.4s2.7-21.7,2.7-34.6c0-10.9-0.8-21.5-2.4-31.8
					s-4.3-19.5-8-27.6c-3.9-8.1-9-14.5-15.4-19.4c-6.4-4.9-14.4-7.3-23.9-7.3c-16.3,0-28.7,7.6-37.2,22.8s-12.7,36.7-12.7,64.4
					c0,11.8,0.9,22.9,2.8,33.4c1.8,10.5,4.8,19.6,8.7,27.4c4.1,7.9,9.2,14,15.4,18.4c6.2,4.4,13.9,6.6,23,6.6c8.9,0,16.6-2.2,23-6.6
					C440.6,666.4,445.7,660.3,449.5,652.6z"/>
				
					<linearGradient id="SVGID_11_" gradientUnits="userSpaceOnUse" x1="1287.7407" y1="1428.1644" x2="-61.5828" y2="728.9747" gradientTransform="matrix(1 0 0 1 0 -486.1277)">
					<stop  offset="3.070000e-02" style="stop-color:#F27321"/>
					<stop  offset="0.3056" style="stop-color:#D74926"/>
					<stop  offset="0.8046" style="stop-color:#EE3D23"/>
					<stop  offset="1" style="stop-color:#D81F27"/>
				</linearGradient>
				<path class="st29" d="M737.9,624.7l-3.8,60.4H557.5v-10.4c3.2-0.3,6.8-0.7,11.1-1.3c4.2-0.6,7-1.1,8.4-1.7
					c3.2-1.2,5.5-3,6.8-5.2c1.3-2.2,1.9-5,1.9-8.5V525.3c0-3.2-0.5-5.8-1.5-7.9c-1-2.1-3.4-4-7.2-5.6c-2.8-1.2-6.1-2.2-10.1-3
					c-3.9-0.8-7.1-1.3-9.4-1.7v-10.3h105.3v10.4c-2.9,0.3-6.3,0.6-10.2,1.1s-7.3,1.2-10.2,2.1c-3.5,1.1-5.9,2.9-7,5.4
					c-1.2,2.4-1.8,5.2-1.8,8.3V648c0,5.8,0.4,10.4,1.2,13.8c0.8,3.4,2.4,5.8,4.7,7.4c2.3,1.7,5.6,2.8,9.8,3.3s10,0.7,17.4,0.7
					c7.2,0,14.2-0.4,21-1.3c6.8-0.8,11.7-2.7,14.7-5.5c4.6-4.5,9.3-10.9,14.1-19.1s8.7-15.7,11.6-22.5L737.9,624.7L737.9,624.7z"/>
				
					<linearGradient id="SVGID_12_" gradientUnits="userSpaceOnUse" x1="1338.302" y1="1335.7886" x2="-13.4151" y2="635.3586" gradientTransform="matrix(1 0 0 1 0 -486.1277)">
					<stop  offset="3.070000e-02" style="stop-color:#F27321"/>
					<stop  offset="0.3056" style="stop-color:#D74926"/>
					<stop  offset="0.8046" style="stop-color:#EE3D23"/>
					<stop  offset="1" style="stop-color:#D81F27"/>
				</linearGradient>
				<path class="st30" d="M943.5,516.2c11.7,7.5,21.2,17.5,28.4,30.1c7.2,12.6,10.8,27.9,10.8,46c0,15.9-3.2,29.8-9.7,41.6
					c-6.4,11.8-15,21.5-25.6,29c-10.8,7.5-23.1,13.1-36.8,16.8s-28.1,5.5-43.2,5.5h-96.6v-10.4c2.9-0.1,6.5-0.4,10.8-0.8
					s7.2-1,8.7-1.6c3.2-1.3,5.5-3.1,6.8-5.4s1.9-5,1.9-8.2V525.3c0-3-0.6-5.7-1.8-8.2s-3.5-4.4-6.9-5.9s-7.1-2.5-10.9-3.1
					c-3.8-0.5-6.8-0.9-8.8-1.1v-10.2h102c10.9,0,22.6,1.4,35,4.1C920,503.6,932,508.7,943.5,516.2z M916,651.2
					c4.4-7.1,7.6-15.5,9.7-25.3c2-9.8,3-21,3-33.8c0-12.5-1.4-23.9-4.1-34.1s-6.7-19-11.9-26.3s-11.7-12.9-19.5-16.9s-16.6-6-26.6-6
					c-3.2,0-6.7,0.1-10.7,0.2c-4,0.1-7,0.2-9,0.3v143c0,3.2,0.4,6,1.3,8.4c0.9,2.4,2.3,4.6,4.4,6.4c2.1,1.9,4.6,3.3,7.6,4.3
					s7,1.5,11.8,1.5c10.2,0,18.9-1.9,26.2-5.6C905.5,663.8,911.5,658.3,916,651.2z"/>
			</g>
			<g>
				
					<linearGradient id="SVGID_13_" gradientUnits="userSpaceOnUse" x1="1187.5995" y1="1617.7557" x2="-162.8471" y2="917.984" gradientTransform="matrix(1 0 0 1 0 -486.1277)">
					<stop  offset="3.070000e-02" style="stop-color:#F27321"/>
					<stop  offset="0.3056" style="stop-color:#D74926"/>
					<stop  offset="0.8046" style="stop-color:#EE3D23"/>
					<stop  offset="1" style="stop-color:#D81F27"/>
				</linearGradient>
				<path class="st31" d="M243.2,598.7c5.8,3.9,10.4,8.8,14.1,14.7c3.6,5.9,5.4,12.8,5.4,20.8c0,9.6-2.1,17.6-6.1,24.2
					c-4.1,6.6-10,11.8-17.6,15.6c-8.1,4.1-17.5,6.9-28,8.6c-10.6,1.7-23.1,2.5-37.4,2.5H73.8v-10.4c2.8-0.3,6.3-0.7,10.5-1.2
					s7.2-1.1,8.9-1.9c3.3-1.3,5.6-3.1,6.8-5.2c1.2-2.2,1.8-5,1.8-8.4V525.3c0-3.2-0.5-5.8-1.5-8c-1-2.1-3.4-4-7.2-5.6
					c-2.8-1.1-6-2.1-9.7-2.9c-3.7-0.8-6.9-1.4-9.7-1.8v-10.2h104.2c26.2,0,45.1,3.5,56.8,10.6c11.6,7.1,17.4,17.5,17.4,31.3
					c0,6.4-1.3,12-3.9,16.8c-2.6,4.8-6.4,9-11.2,12.5c-4.4,3.3-9.7,6.1-15.8,8.5c-6.1,2.4-12.7,4.4-19.7,6v2.5
					c7,0.7,14.3,2.2,21.9,4.6C231,592,237.6,595,243.2,598.7z M199.7,542c0-10.4-3-18.6-9-24.4c-6-5.8-15-8.8-27-8.8
					c-1.7,0-3.9,0.1-6.7,0.2c-2.7,0.1-5.1,0.2-7.1,0.3v69.9h7c14.6,0,25.4-3.3,32.3-10C196.2,562.5,199.7,553.5,199.7,542z
					 M209.1,632.5c0-13.1-4-23.2-11.9-30.2s-19.3-10.5-34.2-10.5c-1.7,0-4,0.1-6.8,0.2c-2.8,0.1-4.9,0.2-6.3,0.3v69
					c0.8,3.3,3.3,6,7.6,8.3c4.2,2.3,9.4,3.4,15.4,3.4c10.7,0,19.4-3.5,26.2-10.6C205.8,655.3,209.1,645.4,209.1,632.5z"/>
				
					<linearGradient id="SVGID_14_" gradientUnits="userSpaceOnUse" x1="1246.547" y1="1510.0417" x2="-106.2782" y2="809.0375" gradientTransform="matrix(1 0 0 1 0 -486.1277)">
					<stop  offset="3.070000e-02" style="stop-color:#F27321"/>
					<stop  offset="0.3056" style="stop-color:#D74926"/>
					<stop  offset="0.8046" style="stop-color:#EE3D23"/>
					<stop  offset="1" style="stop-color:#D81F27"/>
				</linearGradient>
				<path class="st32" d="M484.2,517.7c9.5,8.5,17,18.8,22.5,30.8c5.5,12,8.3,25.8,8.3,41.2c0,13.7-2.3,26.8-7,39.2
					c-4.7,12.4-11.4,23.1-20.3,32c-9.3,9.3-20.2,16.5-32.7,21.7c-12.5,5.2-27.4,7.8-44.7,7.8c-14,0-27.2-2.3-39.6-6.8
					s-23.4-11.1-32.8-19.6c-9.4-8.4-16.8-18.6-22.3-30.7c-5.5-12-8.2-25.4-8.2-40.2c0-15.4,2.7-29.4,8-41.9
					c5.3-12.5,12.7-23.3,22.1-32.2c9.3-8.8,20.3-15.5,33-20.2s26.3-7.1,40.8-7.1c14.3,0,27.8,2.3,40.3,6.9
					C464.1,503.1,475,509.5,484.2,517.7z M449.5,652.6c4.1-8.1,7-17.2,8.8-27.4s2.7-21.7,2.7-34.6c0-10.9-0.8-21.5-2.4-31.8
					s-4.3-19.5-8-27.6c-3.9-8.1-9-14.5-15.4-19.4c-6.4-4.9-14.4-7.3-23.9-7.3c-16.3,0-28.7,7.6-37.2,22.8s-12.7,36.7-12.7,64.4
					c0,11.8,0.9,22.9,2.8,33.4c1.8,10.5,4.8,19.6,8.7,27.4c4.1,7.9,9.2,14,15.4,18.4c6.2,4.4,13.9,6.6,23,6.6c8.9,0,16.6-2.2,23-6.6
					C440.6,666.4,445.7,660.3,449.5,652.6z"/>
				
					<linearGradient id="SVGID_15_" gradientUnits="userSpaceOnUse" x1="1287.7407" y1="1428.1644" x2="-61.5828" y2="728.9747" gradientTransform="matrix(1 0 0 1 0 -486.1277)">
					<stop  offset="3.070000e-02" style="stop-color:#F27321"/>
					<stop  offset="0.3056" style="stop-color:#D74926"/>
					<stop  offset="0.8046" style="stop-color:#EE3D23"/>
					<stop  offset="1" style="stop-color:#D81F27"/>
				</linearGradient>
				<path class="st33" d="M737.9,624.7l-3.8,60.4H557.5v-10.4c3.2-0.3,6.8-0.7,11.1-1.3c4.2-0.6,7-1.1,8.4-1.7
					c3.2-1.2,5.5-3,6.8-5.2c1.3-2.2,1.9-5,1.9-8.5V525.3c0-3.2-0.5-5.8-1.5-7.9c-1-2.1-3.4-4-7.2-5.6c-2.8-1.2-6.1-2.2-10.1-3
					c-3.9-0.8-7.1-1.3-9.4-1.7v-10.3h105.3v10.4c-2.9,0.3-6.3,0.6-10.2,1.1s-7.3,1.2-10.2,2.1c-3.5,1.1-5.9,2.9-7,5.4
					c-1.2,2.4-1.8,5.2-1.8,8.3V648c0,5.8,0.4,10.4,1.2,13.8c0.8,3.4,2.4,5.8,4.7,7.4c2.3,1.7,5.6,2.8,9.8,3.3s10,0.7,17.4,0.7
					c7.2,0,14.2-0.4,21-1.3c6.8-0.8,11.7-2.7,14.7-5.5c4.6-4.5,9.3-10.9,14.1-19.1s8.7-15.7,11.6-22.5L737.9,624.7L737.9,624.7z"/>
				
					<linearGradient id="SVGID_16_" gradientUnits="userSpaceOnUse" x1="1338.302" y1="1335.7886" x2="-13.4151" y2="635.3586" gradientTransform="matrix(1 0 0 1 0 -486.1277)">
					<stop  offset="3.070000e-02" style="stop-color:#F27321"/>
					<stop  offset="0.3056" style="stop-color:#D74926"/>
					<stop  offset="0.8046" style="stop-color:#EE3D23"/>
					<stop  offset="1" style="stop-color:#D81F27"/>
				</linearGradient>
				<path class="st34" d="M943.5,516.2c11.7,7.5,21.2,17.5,28.4,30.1c7.2,12.6,10.8,27.9,10.8,46c0,15.9-3.2,29.8-9.7,41.6
					c-6.4,11.8-15,21.5-25.6,29c-10.8,7.5-23.1,13.1-36.8,16.8s-28.1,5.5-43.2,5.5h-96.6v-10.4c2.9-0.1,6.5-0.4,10.8-0.8
					s7.2-1,8.7-1.6c3.2-1.3,5.5-3.1,6.8-5.4s1.9-5,1.9-8.2V525.3c0-3-0.6-5.7-1.8-8.2s-3.5-4.4-6.9-5.9s-7.1-2.5-10.9-3.1
					c-3.8-0.5-6.8-0.9-8.8-1.1v-10.2h102c10.9,0,22.6,1.4,35,4.1C920,503.6,932,508.7,943.5,516.2z M916,651.2
					c4.4-7.1,7.6-15.5,9.7-25.3c2-9.8,3-21,3-33.8c0-12.5-1.4-23.9-4.1-34.1s-6.7-19-11.9-26.3s-11.7-12.9-19.5-16.9s-16.6-6-26.6-6
					c-3.2,0-6.7,0.1-10.7,0.2c-4,0.1-7,0.2-9,0.3v143c0,3.2,0.4,6,1.3,8.4c0.9,2.4,2.3,4.6,4.4,6.4c2.1,1.9,4.6,3.3,7.6,4.3
					s7,1.5,11.8,1.5c10.2,0,18.9-1.9,26.2-5.6C905.5,663.8,911.5,658.3,916,651.2z"/>
			</g>
		</g>
		<g>
			
				<linearGradient id="SVGID_17_" gradientUnits="userSpaceOnUse" x1="1216.9283" y1="1562.0056" x2="-132.4744" y2="862.7748" gradientTransform="matrix(1 0 0 1 0 -486.1277)">
				<stop  offset="3.070000e-02" style="stop-color:#F27321"/>
				<stop  offset="0.3056" style="stop-color:#D74926"/>
				<stop  offset="0.8046" style="stop-color:#EE3D23"/>
				<stop  offset="1" style="stop-color:#D81F27"/>
			</linearGradient>
			<path class="st35" d="M557.3,698.1c-2.3,0.2-4.7,0.7-7.1,1.4s-4.2,1.9-5.5,3.4c-0.8,0.9-1.7,2.3-2.5,4.1c-0.9,1.8-1.9,4-3.1,6.5
				c-1.2,2.5-2.4,4.9-3.6,7.4c-1.2,2.4-2.8,4.8-4.7,7.2c1.6,1.9,3.5,3.9,5.8,6.1s4.3,3.8,5.9,4.8c1.6,0.9,3.8,1.7,6.7,2.3
				c2.9,0.6,5.3,1,7.2,1.1v4.1h-24.5l-8.9-9.9c-1.3,1.4-2.8,2.9-4.5,4.4c-1.7,1.5-3.5,2.8-5.3,3.9c-2.1,1.2-4.1,2.1-6.2,2.7
				c-2.1,0.7-4.5,1-7.3,1c-2.9,0-5.9-0.4-8.7-1.3c-2.9-0.8-5.5-2.2-7.9-4c-2.3-1.8-4.2-4.1-5.6-6.9s-2.1-6.2-2.1-10.1
				c0-4.8,1.3-9.2,3.9-13.1s7.4-8.1,14.5-12.5c-3.2-4.2-5.7-7.8-7.5-10.8s-2.7-6.4-2.7-10.2c0-2.7,0.5-5.2,1.6-7.4
				c1.1-2.2,2.6-4.2,4.6-5.9c1.8-1.5,4-2.7,6.7-3.6c2.6-0.9,5.3-1.3,8-1.3c3.2,0,6,0.5,8.4,1.5c2.4,1,4.4,2.3,5.9,3.9
				c1.4,1.5,2.4,3.2,3.2,5.1c0.7,1.9,1.1,3.9,1.1,5.8c0,4.7-1.5,8.7-4.4,12.1c-2.9,3.4-7,6.4-12.2,9.1c3.7,4.9,7.4,9.5,10.9,13.5
				c3.6,4.1,7,8.1,10.3,12c2.7-4.2,4.7-8.1,6.2-11.8c1.5-3.7,2.2-6.9,2.2-9.7c0-1.2-0.9-2.2-2.8-3c-1.9-0.8-4.4-1.4-7.6-2.1v-4.1
				h31.8L557.3,698.1L557.3,698.1z M519.8,733.1c-3.7-4.6-7.8-9.6-12.5-15.1c-4.6-5.5-8.3-10.1-11.1-13.9c-3.2,2.2-5.5,4.7-6.8,7.7
				c-1.3,2.9-2,6.3-2,10.1c0,5.3,1.5,9.7,4.6,13.2s7.2,5.2,12.3,5.2c2.9,0,5.7-0.6,8.5-1.8C515.8,737.3,518,735.5,519.8,733.1z
				 M515.3,679.1c0-4-0.9-7-2.7-9.1c-1.8-2.1-4.3-3.2-7.6-3.2c-1.9,0-3.4,0.4-4.6,1.1c-1.2,0.7-2.3,1.7-3.1,2.8
				c-0.8,1.1-1.4,2.3-1.7,3.5c-0.4,1.2-0.5,2.4-0.5,3.3c0,2.7,0.7,5.4,2.1,8.2c1.4,2.7,3.6,6.1,6.7,10c4.1-2.3,7-4.7,8.8-7.3
				C514.3,685.7,515.3,682.6,515.3,679.1z"/>
		</g>
		<g>
			
				<linearGradient id="SVGID_18_" gradientUnits="userSpaceOnUse" x1="1150.6377" y1="1685.108" x2="-197.6136" y2="986.4739" gradientTransform="matrix(1 0 0 1 0 -486.1277)">
				<stop  offset="3.070000e-02" style="stop-color:#F27321"/>
				<stop  offset="0.3056" style="stop-color:#D74926"/>
				<stop  offset="0.8046" style="stop-color:#EE3D23"/>
				<stop  offset="1" style="stop-color:#D81F27"/>
			</linearGradient>
			<path class="st36" d="M466.7,766.3h-10.5c-2.8-8.1-7.3-16.7-13.4-25.9c-6.2-9.2-11.8-14.2-17.1-14.9c-2.9-0.4-6.4-0.7-10.7-0.9
				c-4.2-0.3-7.9-0.4-10.9-0.4h-6.3V872c0,3.2,0.6,6,1.8,8.4c1.2,2.4,3.5,4.4,6.9,5.8c2.1,0.8,5.3,1.6,9.7,2.5
				c4.4,0.8,8.1,1.4,11.1,1.8v10.4h-107v-10.4c2.6-0.3,6.3-0.6,11-1.1s8-1.1,9.7-1.8c3.5-1.4,5.9-3.3,7-5.7c1.2-2.4,1.8-5.2,1.8-8.5
				V724.3h-6.3c-3.1,0-6.7,0.1-10.9,0.4c-4.2,0.3-7.8,0.6-10.7,0.9c-5.2,0.7-10.9,5.7-17.1,14.9c-6.2,9.2-10.6,17.8-13.4,25.9h-10.5
				v-53.9h185.9v53.8H466.7z"/>
			
				<linearGradient id="SVGID_19_" gradientUnits="userSpaceOnUse" x1="1188.8547" y1="1623.1455" x2="-168.5973" y2="919.7437" gradientTransform="matrix(1 0 0 1 0 -486.1277)">
				<stop  offset="3.070000e-02" style="stop-color:#F27321"/>
				<stop  offset="0.3056" style="stop-color:#D74926"/>
				<stop  offset="0.8046" style="stop-color:#EE3D23"/>
				<stop  offset="1" style="stop-color:#D81F27"/>
			</linearGradient>
			<path class="st37" d="M709.5,900.8H605v-10.4c4.9-0.4,10.6-1.2,17.1-2.6c6.6-1.4,9.9-3.1,9.9-5.1c0-0.7-0.1-1.5-0.2-2.4
				c-0.1-0.9-0.5-2.1-1.1-3.6l-16.4-39h-66.2c-1.5,3.6-3.2,7.9-5,12.7c-1.8,4.9-3.4,9.2-4.8,13c-1.7,5-2.7,8.5-3,10.8
				c-0.3,2.2-0.5,3.8-0.5,4.6c0,2.8,2.2,5.2,6.6,7.2c4.4,2,11.6,3.4,21.8,4.3v10.4h-78.7v-10.4c3-0.2,6.3-0.6,10.1-1.4
				c3.7-0.8,6.7-1.8,8.8-3.1c3.7-2.1,6.8-4.7,9.4-7.8c2.6-3.1,4.7-6.8,6.4-11c10.4-24.9,20.9-49.8,31.4-74.7
				c10.5-25,22.1-52.5,34.8-82.6h27c17.7,42.7,31.5,76.4,41.5,101.2s18.5,45.3,25.5,61.6c1.2,2.7,2.7,5.1,4.5,7.2
				c1.8,2.2,4.4,4.2,7.7,6.2c2.5,1.4,5.5,2.5,8.8,3.2c3.3,0.7,6.4,1.1,9.1,1.3L709.5,900.8L709.5,900.8z M608.8,824.6L581,756.5
				l-27.4,68.1H608.8z"/>
			
				<linearGradient id="SVGID_20_" gradientUnits="userSpaceOnUse" x1="1241.9989" y1="1516.7891" x2="-108.2611" y2="817.114" gradientTransform="matrix(1 0 0 1 0 -486.1277)">
				<stop  offset="3.070000e-02" style="stop-color:#F27321"/>
				<stop  offset="0.3056" style="stop-color:#D74926"/>
				<stop  offset="0.8046" style="stop-color:#EE3D23"/>
				<stop  offset="1" style="stop-color:#D81F27"/>
			</linearGradient>
			<path class="st38" d="M815.3,906c-11.7,0-22.6-1.4-32.8-4.3s-18.7-6.3-25.8-10.2l-9.3,9.3h-11.5l-1.8-68.1h11.6
				c2.6,6.5,6,13.3,10,20.5c4.1,7.2,8.7,13.6,14.1,19.3c5.5,5.9,11.6,10.8,18.5,14.5c6.8,3.7,14.8,5.6,23.9,5.6
				c12.3,0,21.6-2.9,28.2-8.8c6.5-5.9,9.8-13.3,9.8-22.3c0-7.4-2.8-13.5-8.3-18.5s-14.1-9.3-25.8-13c-7.6-2.4-14.5-4.6-20.9-6.7
				c-6.3-2-12.3-4.1-17.9-6.3c-12.9-5.1-22.5-12.3-28.7-21.7s-9.4-19.9-9.4-31.5c0-7.4,1.6-14.4,4.9-21.2c3.2-6.8,8-12.9,14.2-18.3
				c6-5,13.6-9.2,22.8-12.4c9.3-3.2,19.4-4.8,30.3-4.8c10.6,0,20.6,1.5,29.9,4.4c9.3,2.9,16.6,5.8,21.9,8.8l8.2-8h11.8l1.1,64.3
				h-11.6c-2.7-6.9-5.9-14-9.5-21.2c-3.7-7.2-7.5-13.2-11.6-18c-4.4-5.1-9.5-9.3-15.3-12.3s-12.5-4.6-20.3-4.6
				c-9.7,0-17.7,2.7-23.9,8.1s-9.3,12.1-9.3,20.1c0,7.5,2.7,13.7,8,18.5c5.4,4.8,13.7,9,25.1,12.6c6.7,2.2,13.5,4.4,20.4,6.6
				c6.9,2.2,13.1,4.3,18.5,6.4c13.1,5,23,11.8,29.8,20.5s10.2,19.6,10.2,32.5c0,8.2-1.9,16-5.8,23.7c-3.9,7.6-9.1,14-15.7,19
				c-7.2,5.6-15.5,9.9-25,12.9C838.9,904.5,827.8,906,815.3,906z"/>
			
				<linearGradient id="SVGID_21_" gradientUnits="userSpaceOnUse" x1="1291.8147" y1="1421.6803" x2="-56.4361" y2="723.0464" gradientTransform="matrix(1 0 0 1 0 -486.1277)">
				<stop  offset="3.070000e-02" style="stop-color:#F27321"/>
				<stop  offset="0.3056" style="stop-color:#D74926"/>
				<stop  offset="0.8046" style="stop-color:#EE3D23"/>
				<stop  offset="1" style="stop-color:#D81F27"/>
			</linearGradient>
			<path class="st39" d="M1116.3,766.3h-10.5c-2.8-8.1-7.3-16.7-13.4-25.9c-6.2-9.2-11.8-14.2-17.1-14.9c-2.9-0.4-6.4-0.7-10.7-0.9
				c-4.2-0.3-7.9-0.4-10.9-0.4h-6.3V872c0,3.2,0.6,6,1.8,8.4c1.2,2.4,3.5,4.4,6.9,5.8c2.1,0.8,5.3,1.6,9.7,2.5
				c4.4,0.8,8.1,1.4,11.1,1.8v10.4H969.9v-10.4c2.6-0.3,6.3-0.6,11-1.1s8-1.1,9.7-1.8c3.5-1.4,5.9-3.3,7-5.7
				c1.2-2.4,1.8-5.2,1.8-8.5V724.3h-6.3c-3.1,0-6.7,0.1-10.9,0.4s-7.8,0.6-10.7,0.9c-5.2,0.7-10.9,5.7-17.1,14.9
				c-6.2,9.2-10.6,17.8-13.4,25.9h-10.5v-53.9h185.8L1116.3,766.3L1116.3,766.3z"/>
			
				<linearGradient id="SVGID_22_" gradientUnits="userSpaceOnUse" x1="1341.4768" y1="1328.9086" x2="-7.408" y2="629.9462" gradientTransform="matrix(1 0 0 1 0 -486.1277)">
				<stop  offset="3.070000e-02" style="stop-color:#F27321"/>
				<stop  offset="0.3056" style="stop-color:#D74926"/>
				<stop  offset="0.8046" style="stop-color:#EE3D23"/>
				<stop  offset="1" style="stop-color:#D81F27"/>
			</linearGradient>
			<path class="st40" d="M1353.3,722.8c-3.2,0.4-6.2,0.9-8.9,1.7c-2.7,0.8-5.3,1.9-7.7,3.3c-3.9,2.1-7.3,4.8-10.3,8.2
				c-3,3.3-6,7-8.8,11.1c-5.9,8.4-12,17.5-18.4,27.4c-6.4,9.9-13.4,20.7-21,32.6c-4.9,7.5-8,13.3-9.1,17.3s-1.7,11-1.7,20.9V872
				c0,3.2,0.6,6,1.8,8.4c1.2,2.4,3.5,4.3,7,5.8c1.5,0.6,4.8,1.4,9.7,2.5c4.9,1,8.6,1.6,11,1.8v10.4h-106.9v-10.4
				c2.5-0.2,6.1-0.5,10.9-1.1c4.7-0.5,8-1.1,9.9-1.9c3.3-1.4,5.6-3.3,6.8-5.6c1.2-2.3,1.8-5.2,1.8-8.6v-33.1c0-2.9,0-5.5-0.1-7.7
				s-0.4-4.1-0.9-5.6c-0.6-1.7-1.7-3.8-3.2-6.4s-3.5-6-6-10.2c-6.9-12-13.7-23.3-20.1-34s-12.7-20.8-18.5-30.1
				c-3.1-4.9-6.1-8.8-9.3-11.7c-3.1-3-6.3-5.4-9.5-7.2c-2.4-1.3-5.4-2.3-8.8-3.1c-3.5-0.7-6.6-1.1-9.4-1.3v-10.4h109.9v10.4
				c-10.1,0.3-16.8,1-20.3,2.1c-3.5,1.1-5.3,2.6-5.3,4.6c0,1,0.6,2.9,2,5.8c1.3,2.9,3.6,7.4,7,13.5c3.1,5.7,7.5,13.7,13.4,23.7
				c5.9,10.1,13,21.9,21.3,35.4c17.1-26.6,28.8-45.2,35.2-55.8c6.4-10.6,9.6-17,9.6-19.4c0-3-1.9-5.3-5.6-6.9
				c-3.8-1.6-9.9-2.6-18.3-3.1v-10.4h71.1L1353.3,722.8L1353.3,722.8z"/>
		</g>
	</g>
	<g>
		<path class="st41" d="M268.1,812.2"/>
		<g>
			<path class="st11" d="M320.9,882.4c0.4-2.9,0.6-5.5,0.6-7.8c-1.2-1.4-2.4-2.7-3.6-4.1c-32.4-36.9-46.4-51.1-52.1-55.6
				c-0.1-0.1-1.3-1-3-2.4c0,0,0,0-0.1,0c-0.6-0.5-1.2-0.9-1.7-1.4l0,0c-3.8-2.8-12.7-8.5-18.5-4.2c-0.1,0.1-0.3,0.2-0.4,0.3
				c-4.2,4.2,2.5,17.8,7.8,26.6c0,0,0,0,0,0.1c1.8,2.7,3.7,5.2,5.6,7.8c26.6,35.3,60.1,56.4,60.1,56.4
				C318.8,892.9,320.2,887,320.9,882.4z M255.7,825.6c-1.3-1.3-1.3-3.5,0-4.9c1.3-1.3,3.4-1.3,4.7,0c1.3,1.3,1.3,3.5,0,4.9
				C259.1,827,257,827,255.7,825.6z M277,847.7c-1.3-1.4-1.3-3.5,0-4.9c1.3-1.3,3.4-1.3,4.7,0c1.3,1.3,1.3,3.5,0,4.9
				C280.4,849,278.3,849,277,847.7z M300.5,871.9c-1.3-1.3-1.3-3.5,0-4.9c1.3-1.3,3.4-1.3,4.7,0c1.3,1.3,1.3,3.5,0,4.9
				C303.9,873.3,301.7,873.3,300.5,871.9z"/>
			<path class="st42" d="M242.2,807.3c0,0-17,1.1-24.5,1.1c0,0,0,0-0.1,0h-0.1c-0.5,0-1-0.1-1.5-0.1h-0.6l0,0l0,0l-8.8,0.4
				c1.4,1.9-71.7-75.1-92.9-109.3c0,0-19-28.9-25.2-51.6c9.2,5.1,27.6,17.2,50.3,38.7c29.1,27.6,66.7,64.8,94.6,96.4
				c0,0,0.3,0.4,0.8,1.1l0,0C234.7,785.1,242.9,800.6,242.2,807.3z"/>
			<path class="st42" d="M261.1,811.1c-3.8-2.8-12.7-8.5-18.5-4.2c-0.1,0.1-0.3,0.2-0.4,0.3c0.7-6.6-7.5-22.2-8-23.2
				c2,2.8,7.2,10,10.7,13.6C247.7,800.7,252.3,804.2,261.1,811.1z"/>
			<path class="st42" d="M250,833.9c-2.4-3.5-4.7-7.2-6.9-11c-0.6-1-1.5-2.3-2.7-3.9c0,0-2.3-3-4.4-5.1c-2.9-2.8-9.7-5-18.3-5.6
				c7.5,0,24.5-1.1,24.5-1.1C238,811.4,244.7,825.1,250,833.9z"/>
			<path class="st43" d="M272.8,821.4"/>
			<path class="st43" d="M237.8,789"/>
			<path class="st43" d="M221.5,807.8"/>
			<path class="st43" d="M238.3,826"/>
			<path class="st43" d="M243.8,834.6"/>
			<path class="st43" d="M250,833.9c2.8,4.6,5.2,7.9,5.6,7.8"/>
			<path class="st43" d="M262.8,812.5c-0.2-0.2-0.8-0.7-1.7-1.4"/>
			<path class="st44" d="M217.6,808.3c-0.9,0-1.6,0-2.1,0"/>
			<path class="st45" d="M305.2,871.9c-1.3,1.4-3.4,1.3-4.7,0s-1.3-3.5,0-4.9c1.3-1.3,3.4-1.3,4.7,0
				C306.5,868.4,306.5,870.6,305.2,871.9z"/>
			<path class="st45" d="M260.4,825.6c-1.3,1.4-3.4,1.3-4.7,0c-1.3-1.3-1.3-3.5,0-4.9c1.3-1.3,3.4-1.3,4.7,0
				C261.7,822.1,261.7,824.3,260.4,825.6z"/>
			<path class="st45" d="M281.7,847.7c-1.3,1.4-3.4,1.4-4.7,0c-1.3-1.4-1.3-3.5,0-4.9c1.3-1.3,3.4-1.3,4.7,0
				C283,844.1,283,846.3,281.7,847.7z"/>
		</g>
	</g>
</g>
<circle class="st46" cx="-965.1" cy="526.6" r="30.6"/>
<circle class="st47" cx="-896.1" cy="526.6" r="30.6"/>
<circle class="st48" cx="-824.1" cy="526.6" r="30.6"/>
<circle class="st49" cx="-752.1" cy="526.6" r="30.6"/>
<circle class="st50" cx="-684" cy="526.6" r="30.6"/>
<circle class="st51" cx="-964.7" cy="451.6" r="30.6"/>
<circle class="st52" cx="-895.8" cy="451.6" r="30.6"/>
<circle class="st53" cx="-823.8" cy="451.6" r="30.6"/>
<circle class="st54" cx="-751.8" cy="451.6" r="30.6"/>
<circle class="st55" cx="-683.6" cy="451.6" r="30.6"/>
<circle class="st56" cx="-595" cy="526.6" r="30.6"/>
<circle class="st57" cx="-526" cy="526.6" r="30.6"/>
<circle class="st53" cx="-454" cy="526.6" r="30.6"/>
<circle class="st58" cx="-382" cy="526.6" r="30.6"/>
<circle class="st59" cx="-313.9" cy="526.6" r="30.6"/>
<circle class="st60" cx="-598" cy="451.6" r="30.6"/>
<circle class="st61" cx="-529.1" cy="451.6" r="30.6"/>
<circle class="st53" cx="-457.1" cy="451.6" r="30.6"/>
<circle class="st62" cx="-385.1" cy="451.6" r="30.6"/>
<circle class="st59" cx="-316.9" cy="451.6" r="30.6"/>
</svg>
